<svg id="visual" viewBox="0 0 900 600" width="900" height="600" xmlns="http://www.w3.org/2000/svg" xmlns:xlink="http://www.w3.org/1999/xlink" version="1.1"><path d="M0 181L13.7 178C27.3 175 54.7 169 82 175C109.3 181 136.7 199 163.8 191C191 183 218 149 245.2 153C272.3 157 299.7 199 327 193C354.3 187 381.7 133 409 123C436.3 113 463.7 147 491 148C518.3 149 545.7 117 573 130C600.3 143 627.7 201 654.8 228C682 255 709 251 736.2 242C763.3 233 790.7 219 818 214C845.3 209 872.7 213 886.3 215L900 217L900 0L886.3 0C872.7 0 845.3 0 818 0C790.7 0 763.3 0 736.2 0C709 0 682 0 654.8 0C627.7 0 600.3 0 573 0C545.7 0 518.3 0 491 0C463.7 0 436.3 0 409 0C381.7 0 354.3 0 327 0C299.7 0 272.3 0 245.2 0C218 0 191 0 163.8 0C136.7 0 109.3 0 82 0C54.7 0 27.3 0 13.7 0L0 0Z" fill="#4e2bad"></path><path d="M0 379L13.7 361C27.3 343 54.7 307 82 305C109.3 303 136.7 335 163.8 337C191 339 218 311 245.2 306C272.3 301 299.7 319 327 325C354.3 331 381.7 325 409 320C436.3 315 463.7 311 491 313C518.3 315 545.7 323 573 334C600.3 345 627.7 359 654.8 361C682 363 709 353 736.2 361C763.3 369 790.7 395 818 395C845.3 395 872.7 369 886.3 356L900 343L900 215L886.3 213C872.7 211 845.3 207 818 212C790.7 217 763.3 231 736.2 240C709 249 682 253 654.8 226C627.7 199 600.3 141 573 128C545.7 115 518.3 147 491 146C463.7 145 436.3 111 409 121C381.7 131 354.3 185 327 191C299.7 197 272.3 155 245.2 151C218 147 191 181 163.8 189C136.7 197 109.3 179 82 173C54.7 167 27.3 173 13.7 176L0 179Z" fill="#3b189a"></path><path d="M0 415L13.7 407C27.3 399 54.7 383 82 385C109.3 387 136.7 407 163.8 407C191 407 218 387 245.2 389C272.3 391 299.7 415 327 422C354.3 429 381.7 419 409 403C436.3 387 463.7 365 491 367C518.3 369 545.7 395 573 415C600.3 435 627.7 449 654.8 449C682 449 709 435 736.2 436C763.3 437 790.7 453 818 457C845.3 461 872.7 453 886.3 449L900 445L900 341L886.3 354C872.7 367 845.3 393 818 393C790.7 393 763.3 367 736.2 359C709 351 682 361 654.8 359C627.7 357 600.3 343 573 332C545.7 321 518.3 313 491 311C463.7 309 436.3 313 409 318C381.7 323 354.3 329 327 323C299.7 317 272.3 299 245.2 304C218 309 191 337 163.8 335C136.7 333 109.3 301 82 303C54.7 305 27.3 341 13.7 359L0 377Z" fill="#260287"></path><path d="M0 487L13.7 482C27.3 477 54.7 467 82 469C109.3 471 136.7 485 163.8 488C191 491 218 483 245.2 487C272.3 491 299.7 507 327 513C354.3 519 381.7 515 409 505C436.3 495 463.7 479 491 475C518.3 471 545.7 479 573 491C600.3 503 627.7 519 654.8 517C682 515 709 495 736.2 494C763.3 493 790.7 511 818 521C845.3 531 872.7 533 886.3 534L900 535L900 443L886.3 447C872.7 451 845.3 459 818 455C790.7 451 763.3 435 736.2 434C709 433 682 447 654.8 447C627.7 447 600.3 433 573 413C545.7 393 518.3 367 491 365C463.7 363 436.3 385 409 401C381.7 417 354.3 427 327 420C299.7 413 272.3 389 245.2 387C218 385 191 405 163.8 405C136.7 405 109.3 385 82 383C54.7 381 27.3 397 13.7 405L0 413Z" fill="#1c0976"></path><path d="M0 601L13.7 601C27.3 601 54.7 601 82 601C109.3 601 136.7 601 163.8 601C191 601 218 601 245.2 601C272.3 601 299.7 601 327 601C354.3 601 381.7 601 409 601C436.3 601 463.7 601 491 601C518.3 601 545.7 601 573 601C600.3 601 627.7 601 654.8 601C682 601 709 601 736.2 601C763.3 601 790.7 601 818 601C845.3 601 872.7 601 886.3 601L900 601L900 533L886.3 532C872.7 531 845.3 529 818 519C790.7 509 763.3 491 736.2 492C709 493 682 513 654.8 515C627.7 517 600.3 501 573 489C545.7 477 518.3 469 491 473C463.7 477 436.3 493 409 503C381.7 513 354.3 517 327 511C299.7 505 272.3 489 245.2 485C218 481 191 489 163.8 486C136.7 483 109.3 469 82 467C54.7 465 27.3 475 13.7 480L0 485Z" fill="#140c65"></path></svg>