<svg id="visual" viewBox="0 0 900 600" width="900" height="600" xmlns="http://www.w3.org/2000/svg" xmlns:xlink="http://www.w3.org/1999/xlink" version="1.1"><path d="M0 157L13.7 172C27.3 187 54.7 217 82 223C109.3 229 136.7 211 163.8 201C191 191 218 189 245.2 188C272.3 187 299.7 187 327 194C354.3 201 381.7 215 409 215C436.3 215 463.7 201 491 196C518.3 191 545.7 195 573 194C600.3 193 627.7 187 654.8 178C682 169 709 157 736.2 141C763.3 125 790.7 105 818 121C845.3 137 872.7 189 886.3 215L900 241L900 0L886.3 0C872.7 0 845.3 0 818 0C790.7 0 763.3 0 736.2 0C709 0 682 0 654.8 0C627.7 0 600.3 0 573 0C545.7 0 518.3 0 491 0C463.7 0 436.3 0 409 0C381.7 0 354.3 0 327 0C299.7 0 272.3 0 245.2 0C218 0 191 0 163.8 0C136.7 0 109.3 0 82 0C54.7 0 27.3 0 13.7 0L0 0Z" fill="#100a56"></path><path d="M0 277L13.7 291C27.3 305 54.7 333 82 327C109.3 321 136.7 281 163.8 273C191 265 218 289 245.2 297C272.3 305 299.7 297 327 300C354.3 303 381.7 317 409 318C436.3 319 463.7 307 491 298C518.3 289 545.7 283 573 280C600.3 277 627.7 277 654.8 274C682 271 709 265 736.2 257C763.3 249 790.7 239 818 252C845.3 265 872.7 301 886.3 319L900 337L900 239L886.3 213C872.7 187 845.3 135 818 119C790.7 103 763.3 123 736.2 139C709 155 682 167 654.8 176C627.7 185 600.3 191 573 192C545.7 193 518.3 189 491 194C463.7 199 436.3 213 409 213C381.7 213 354.3 199 327 192C299.7 185 272.3 185 245.2 186C218 187 191 189 163.8 199C136.7 209 109.3 227 82 221C54.7 215 27.3 185 13.7 170L0 155Z" fill="#150762"></path><path d="M0 355L13.7 365C27.3 375 54.7 395 82 388C109.3 381 136.7 347 163.8 344C191 341 218 369 245.2 371C272.3 373 299.7 349 327 346C354.3 343 381.7 361 409 372C436.3 383 463.7 387 491 380C518.3 373 545.7 355 573 343C600.3 331 627.7 325 654.8 330C682 335 709 351 736.2 349C763.3 347 790.7 327 818 328C845.3 329 872.7 351 886.3 362L900 373L900 335L886.3 317C872.7 299 845.3 263 818 250C790.7 237 763.3 247 736.2 255C709 263 682 269 654.8 272C627.7 275 600.3 275 573 278C545.7 281 518.3 287 491 296C463.7 305 436.3 317 409 316C381.7 315 354.3 301 327 298C299.7 295 272.3 303 245.2 295C218 287 191 263 163.8 271C136.7 279 109.3 319 82 325C54.7 331 27.3 303 13.7 289L0 275Z" fill="#1b036d"></path><path d="M0 421L13.7 428C27.3 435 54.7 449 82 442C109.3 435 136.7 407 163.8 402C191 397 218 415 245.2 419C272.3 423 299.7 413 327 413C354.3 413 381.7 423 409 433C436.3 443 463.7 453 491 447C518.3 441 545.7 419 573 405C600.3 391 627.7 385 654.8 390C682 395 709 411 736.2 410C763.3 409 790.7 391 818 390C845.3 389 872.7 405 886.3 413L900 421L900 371L886.3 360C872.7 349 845.3 327 818 326C790.7 325 763.3 345 736.2 347C709 349 682 333 654.8 328C627.7 323 600.3 329 573 341C545.7 353 518.3 371 491 378C463.7 385 436.3 381 409 370C381.7 359 354.3 341 327 344C299.7 347 272.3 371 245.2 369C218 367 191 339 163.8 342C136.7 345 109.3 379 82 386C54.7 393 27.3 373 13.7 363L0 353Z" fill="#26057c"></path><path d="M0 571L13.7 568C27.3 565 54.7 559 82 550C109.3 541 136.7 529 163.8 531C191 533 218 549 245.2 551C272.3 553 299.7 541 327 531C354.3 521 381.7 513 409 514C436.3 515 463.7 525 491 536C518.3 547 545.7 559 573 556C600.3 553 627.7 535 654.8 534C682 533 709 549 736.2 557C763.3 565 790.7 565 818 556C845.3 547 872.7 529 886.3 520L900 511L900 419L886.3 411C872.7 403 845.3 387 818 388C790.7 389 763.3 407 736.2 408C709 409 682 393 654.8 388C627.7 383 600.3 389 573 403C545.7 417 518.3 439 491 445C463.7 451 436.3 441 409 431C381.7 421 354.3 411 327 411C299.7 411 272.3 421 245.2 417C218 413 191 395 163.8 400C136.7 405 109.3 433 82 440C54.7 447 27.3 433 13.7 426L0 419Z" fill="#34128d"></path><path d="M0 601L13.7 601C27.3 601 54.7 601 82 601C109.3 601 136.7 601 163.8 601C191 601 218 601 245.2 601C272.3 601 299.7 601 327 601C354.3 601 381.7 601 409 601C436.3 601 463.7 601 491 601C518.3 601 545.7 601 573 601C600.3 601 627.7 601 654.8 601C682 601 709 601 736.2 601C763.3 601 790.7 601 818 601C845.3 601 872.7 601 886.3 601L900 601L900 509L886.3 518C872.7 527 845.3 545 818 554C790.7 563 763.3 563 736.2 555C709 547 682 531 654.8 532C627.7 533 600.3 551 573 554C545.7 557 518.3 545 491 534C463.7 523 436.3 513 409 512C381.7 511 354.3 519 327 529C299.7 539 272.3 551 245.2 549C218 547 191 531 163.8 529C136.7 527 109.3 539 82 548C54.7 557 27.3 563 13.7 566L0 569Z" fill="#421e9f"></path></svg>