<svg id="visual" viewBox="0 0 900 600" width="900" height="600" xmlns="http://www.w3.org/2000/svg" xmlns:xlink="http://www.w3.org/1999/xlink" version="1.1"><rect x="0" y="0" width="900" height="600" fill="#FCFBFF"></rect><path d="M0 375L12.5 375.8C25 376.7 50 378.3 75 373.7C100 369 125 358 150 353C175 348 200 349 225 352.5C250 356 275 362 300 374.5C325 387 350 406 375 407.7C400 409.3 425 393.7 450 389.8C475 386 500 394 525 389.5C550 385 575 368 600 366.7C625 365.3 650 379.7 675 389.3C700 399 725 404 750 404.2C775 404.3 800 399.7 825 393C850 386.3 875 377.7 887.5 373.3L900 369L900 601L887.5 601C875 601 850 601 825 601C800 601 775 601 750 601C725 601 700 601 675 601C650 601 625 601 600 601C575 601 550 601 525 601C500 601 475 601 450 601C425 601 400 601 375 601C350 601 325 601 300 601C275 601 250 601 225 601C200 601 175 601 150 601C125 601 100 601 75 601C50 601 25 601 12.5 601L0 601Z" fill="#3e00ff"></path><path d="M0 450L12.5 439.5C25 429 50 408 75 401.8C100 395.7 125 404.3 150 407.5C175 410.7 200 408.3 225 412.3C250 416.3 275 426.7 300 432C325 437.3 350 437.7 375 431.3C400 425 425 412 450 414.7C475 417.3 500 435.7 525 439.8C550 444 575 434 600 430.7C625 427.3 650 430.7 675 428.3C700 426 725 418 750 420.2C775 422.3 800 434.7 825 435C850 435.3 875 423.7 887.5 417.8L900 412L900 601L887.5 601C875 601 850 601 825 601C800 601 775 601 750 601C725 601 700 601 675 601C650 601 625 601 600 601C575 601 550 601 525 601C500 601 475 601 450 601C425 601 400 601 375 601C350 601 325 601 300 601C275 601 250 601 225 601C200 601 175 601 150 601C125 601 100 601 75 601C50 601 25 601 12.5 601L0 601Z" fill="#6e42ff"></path><path d="M0 462L12.5 465.7C25 469.3 50 476.7 75 474C100 471.3 125 458.7 150 457.3C175 456 200 466 225 471.2C250 476.3 275 476.7 300 478C325 479.3 350 481.7 375 477C400 472.3 425 460.7 450 459.8C475 459 500 469 525 474.8C550 480.7 575 482.3 600 471.5C625 460.7 650 437.3 675 432.2C700 427 725 440 750 448C775 456 800 459 825 459.8C850 460.7 875 459.3 887.5 458.7L900 458L900 601L887.5 601C875 601 850 601 825 601C800 601 775 601 750 601C725 601 700 601 675 601C650 601 625 601 600 601C575 601 550 601 525 601C500 601 475 601 450 601C425 601 400 601 375 601C350 601 325 601 300 601C275 601 250 601 225 601C200 601 175 601 150 601C125 601 100 601 75 601C50 601 25 601 12.5 601L0 601Z" fill="#906aff"></path><path d="M0 498L12.5 496.7C25 495.3 50 492.7 75 489.2C100 485.7 125 481.3 150 479.3C175 477.3 200 477.7 225 477.5C250 477.3 275 476.7 300 475.5C325 474.3 350 472.7 375 476.8C400 481 425 491 450 488.7C475 486.3 500 471.7 525 462.5C550 453.3 575 449.7 600 458C625 466.3 650 486.7 675 494.5C700 502.3 725 497.7 750 492.8C775 488 800 483 825 484.8C850 486.7 875 495.3 887.5 499.7L900 504L900 601L887.5 601C875 601 850 601 825 601C800 601 775 601 750 601C725 601 700 601 675 601C650 601 625 601 600 601C575 601 550 601 525 601C500 601 475 601 450 601C425 601 400 601 375 601C350 601 325 601 300 601C275 601 250 601 225 601C200 601 175 601 150 601C125 601 100 601 75 601C50 601 25 601 12.5 601L0 601Z" fill="#ad8fff"></path><path d="M0 520L12.5 517.8C25 515.7 50 511.3 75 512.2C100 513 125 519 150 514.5C175 510 200 495 225 492.3C250 489.7 275 499.3 300 505.8C325 512.3 350 515.7 375 511C400 506.3 425 493.7 450 492C475 490.3 500 499.7 525 500.8C550 502 575 495 600 497C625 499 650 510 675 512C700 514 725 507 750 500.5C775 494 800 488 825 490.8C850 493.7 875 505.3 887.5 511.2L900 517L900 601L887.5 601C875 601 850 601 825 601C800 601 775 601 750 601C725 601 700 601 675 601C650 601 625 601 600 601C575 601 550 601 525 601C500 601 475 601 450 601C425 601 400 601 375 601C350 601 325 601 300 601C275 601 250 601 225 601C200 601 175 601 150 601C125 601 100 601 75 601C50 601 25 601 12.5 601L0 601Z" fill="#c8b3ff"></path><path d="M0 550L12.5 545.2C25 540.3 50 530.7 75 525.7C100 520.7 125 520.3 150 521.7C175 523 200 526 225 525C250 524 275 519 300 516.2C325 513.3 350 512.7 375 513.2C400 513.7 425 515.3 450 519.7C475 524 500 531 525 536.5C550 542 575 546 600 542.3C625 538.7 650 527.3 675 527.7C700 528 725 540 750 545.8C775 551.7 800 551.3 825 546.7C850 542 875 533 887.5 528.5L900 524L900 601L887.5 601C875 601 850 601 825 601C800 601 775 601 750 601C725 601 700 601 675 601C650 601 625 601 600 601C575 601 550 601 525 601C500 601 475 601 450 601C425 601 400 601 375 601C350 601 325 601 300 601C275 601 250 601 225 601C200 601 175 601 150 601C125 601 100 601 75 601C50 601 25 601 12.5 601L0 601Z" fill="#e2d7ff"></path><path d="M0 559L12.5 562C25 565 50 571 75 572C100 573 125 569 150 566C175 563 200 561 225 562.3C250 563.7 275 568.3 300 567.3C325 566.3 350 559.7 375 560.7C400 561.7 425 570.3 450 573.3C475 576.3 500 573.7 525 573.3C550 573 575 575 600 573.7C625 572.3 650 567.7 675 565.3C700 563 725 563 750 561C775 559 800 555 825 552C850 549 875 547 887.5 546L900 545L900 601L887.5 601C875 601 850 601 825 601C800 601 775 601 750 601C725 601 700 601 675 601C650 601 625 601 600 601C575 601 550 601 525 601C500 601 475 601 450 601C425 601 400 601 375 601C350 601 325 601 300 601C275 601 250 601 225 601C200 601 175 601 150 601C125 601 100 601 75 601C50 601 25 601 12.5 601L0 601Z" fill="#fcfbff"></path></svg>