<svg id="visual" viewBox="0 0 675 900" width="675" height="900" xmlns="http://www.w3.org/2000/svg" xmlns:xlink="http://www.w3.org/1999/xlink" version="1.1"><rect x="0" y="0" width="675" height="900" fill="#FCFBFF"></rect><path d="M0 410L16 424.3C32 438.7 64 467.3 96.2 481C128.3 494.7 160.7 493.3 192.8 483.5C225 473.7 257 455.3 289.2 462.7C321.3 470 353.7 503 385.8 518.3C418 533.7 450 531.3 482.2 536.8C514.3 542.3 546.7 555.7 578.8 551.2C611 546.7 643 524.3 659 513.2L675 502L675 901L659 901C643 901 611 901 578.8 901C546.7 901 514.3 901 482.2 901C450 901 418 901 385.8 901C353.7 901 321.3 901 289.2 901C257 901 225 901 192.8 901C160.7 901 128.3 901 96.2 901C64 901 32 901 16 901L0 901Z" fill="#ebe4ff"></path><path d="M0 503L16 504.7C32 506.3 64 509.7 96.2 517.8C128.3 526 160.7 539 192.8 554C225 569 257 586 289.2 578C321.3 570 353.7 537 385.8 520C418 503 450 502 482.2 500.7C514.3 499.3 546.7 497.7 578.8 517.5C611 537.3 643 578.7 659 599.3L675 620L675 901L659 901C643 901 611 901 578.8 901C546.7 901 514.3 901 482.2 901C450 901 418 901 385.8 901C353.7 901 321.3 901 289.2 901C257 901 225 901 192.8 901C160.7 901 128.3 901 96.2 901C64 901 32 901 16 901L0 901Z" fill="#efeaff"></path><path d="M0 563L16 586.8C32 610.7 64 658.3 96.2 659.2C128.3 660 160.7 614 192.8 604.5C225 595 257 622 289.2 629.3C321.3 636.7 353.7 624.3 385.8 611.5C418 598.7 450 585.3 482.2 578.8C514.3 572.3 546.7 572.7 578.8 584C611 595.3 643 617.7 659 628.8L675 640L675 901L659 901C643 901 611 901 578.8 901C546.7 901 514.3 901 482.2 901C450 901 418 901 385.8 901C353.7 901 321.3 901 289.2 901C257 901 225 901 192.8 901C160.7 901 128.3 901 96.2 901C64 901 32 901 16 901L0 901Z" fill="#f3efff"></path><path d="M0 684L16 681C32 678 64 672 96.2 681.8C128.3 691.7 160.7 717.3 192.8 715.2C225 713 257 683 289.2 686.2C321.3 689.3 353.7 725.7 385.8 728.5C418 731.3 450 700.7 482.2 690.7C514.3 680.7 546.7 691.3 578.8 698.3C611 705.3 643 708.7 659 710.3L675 712L675 901L659 901C643 901 611 901 578.8 901C546.7 901 514.3 901 482.2 901C450 901 418 901 385.8 901C353.7 901 321.3 901 289.2 901C257 901 225 901 192.8 901C160.7 901 128.3 901 96.2 901C64 901 32 901 16 901L0 901Z" fill="#f8f5ff"></path><path d="M0 825L16 819C32 813 64 801 96.2 796.7C128.3 792.3 160.7 795.7 192.8 799.3C225 803 257 807 289.2 806C321.3 805 353.7 799 385.8 798.3C418 797.7 450 802.3 482.2 809.7C514.3 817 546.7 827 578.8 828.7C611 830.3 643 823.7 659 820.3L675 817L675 901L659 901C643 901 611 901 578.8 901C546.7 901 514.3 901 482.2 901C450 901 418 901 385.8 901C353.7 901 321.3 901 289.2 901C257 901 225 901 192.8 901C160.7 901 128.3 901 96.2 901C64 901 32 901 16 901L0 901Z" fill="#fcfbff"></path></svg>